
  <svg xmlns="http://www.w3.org/2000/svg" viewBox="0 0 55.48 56.16" width="700px" height="auto"><g data-name="Camada 2" class="plane">
 <path d="M47.78 33.49a28.49 28.49 0 0 0 .72-5.39l6.37-3.72a1.44 1.44 0 0 0 .5-1.76l-4.26-10.23a1.26 1.26 0 0 0-1.6-.74l-7.15 1.79a18.29 18.29 0 0 0-4.26-3.31L38 2.81a1.27 1.27 0 0 0-1.13-1.33L25.86 0a1.28 1.28 0 0 0-1.44 1l-2 7.05a18 18 0 0 0-5 2.08L11 6.53a1.26 1.26 0 0 0-1.73.29l-6.76 8.76a1.43 1.43 0 0 0 0 1.83l5.19 5.26c-.2.84-.36 1.74-.49 2.68S7 27.19 7 28.06L.61 31.78a1.44 1.44 0 0 0-.5 1.76l4.26 10.23a1.26 1.26 0 0 0 1.6.74l7.16-1.79A17.94 17.94 0 0 0 17.39 46l.06 7.32a1.27 1.27 0 0 0 1.13 1.32l11 1.47a1.25 1.25 0 0 0 1.43-1l2-7A18 18 0 0 0 38 46l6.44 3.6a1.26 1.26 0 0 0 1.73-.29L53 40.58a1.45 1.45 0 0 0 0-1.83zm-14.15 2.29A9.68 9.68 0 0 1 20 34a9.28 9.28 0 0 1-1.78-7.15A9.28 9.28 0 0 1 29 18.58a9.3 9.3 0 0 1 8.23 10.76 9.24 9.24 0 0 1-3.6 6.44z" fill="#78448f" data-name="Camada 1"/></g></svg>
 
    
 
